Coordinates
version=1
nRows=26
nColumns=22
inDegrees=yes

Units are S.I. units (second, meters, Newtons, ...)
If the header above contains a line with 'inDegrees', this indicates whether rotational values are in degrees (yes) or radians (no).

endheader
time	pelvis_tilt	pelvis_list	pelvis_rotation	pelvis_tx	pelvis_ty	pelvis_tz	hip_flexion_r	hip_adduction_r	hip_rotation_r	knee_angle_r	ankle_angle_r	subtalar_angle_r	hip_flexion_l	hip_adduction_l	hip_rotation_l	knee_angle_l	ankle_angle_l	subtalar_angle_l	lumbar_extension	lumbar_bending	lumbar_rotation
      0.01000000	     -5.62583019	      2.25916549	    188.15644822	      0.04456590	      0.95387409	      1.21763776	     -6.64083627	      5.14008139	    -11.10068099	     -6.99176458	      9.61902154	      1.80220197	     -2.98389614	     -3.64330843	    -12.89512585	    -14.95789492	     20.88855217	     -6.70584775	    -11.12314892	      4.57206597	     -8.11150164
      0.02000000	     -5.62525198	      2.25891238	    188.15579052	      0.04449392	      0.95385786	      1.21764046	     -6.64166777	      5.13899249	    -11.09775722	     -6.99990888	      9.62103626	      1.80316988	     -2.98641930	     -3.64463574	    -12.89572123	    -14.96198736	     20.88973491	     -6.70575821	    -11.12242803	      4.56338699	     -8.11506359
      0.03000000	     -5.62709643	      2.24317460	    188.14912159	      0.04445857	      0.95383939	      1.21765086	     -6.62874684	      5.11641956	    -11.07989224	     -7.04182309	      9.64352706	      1.80972831	     -2.98352826	     -3.62937527	    -12.90742492	    -14.98185783	     20.90093778	     -6.70453409	    -11.13853551	      4.54054205	     -8.13603967
      0.04000000	     -5.62585658	      2.22654132	    188.13725125	      0.04438483	      0.95380877	      1.21765505	     -6.61040100	      5.09083751	    -11.06911918	     -7.09302479	      9.69259958	      1.82075025	     -2.97714139	     -3.61366987	    -12.92455001	    -15.00937480	     20.91441792	     -6.70460139	    -11.14442074	      4.51050637	     -8.14659432
      0.05000000	     -5.62713352	      2.22776931	    188.13141313	      0.04423399	      0.95378217	      1.21768093	     -6.61490609	      5.08853381	    -11.06662811	     -7.10664123	      9.69788241	      1.82189363	     -2.98266017	     -3.61512749	    -12.92258413	    -15.02133216	     20.91556073	     -6.70474467	    -11.13441326	      4.50297525	     -8.15008245
      0.06000000	     -5.61324611	      2.20459784	    188.11714733	      0.04417465	      0.95370833	      1.21768696	     -6.55182295	      5.04669423	    -11.08019594	     -7.22132583	      9.84696567	      1.84831325	     -2.93235004	     -3.59705501	    -12.95805187	    -15.10936430	     20.96048331	     -6.71252546	    -11.13350036	      4.46235971	     -8.17009519
      0.07000000	     -5.62402250	      2.20214978	    188.11568082	      0.04406264	      0.95368336	      1.21772199	     -6.54028824	      5.03797243	    -11.05892221	     -7.28575226	      9.86064997	      1.85218812	     -2.92006204	     -3.59809032	    -12.93320765	    -15.17073813	     20.97043742	     -6.71390604	    -11.14862678	      4.45530930	     -8.19634911
      0.08000000	     -5.61304579	      2.21131037	    188.14189429	      0.04393162	      0.95359617	      1.21779420	     -6.49449950	      5.03771823	    -11.12130977	     -7.37229915	      9.97554215	      1.87019751	     -2.84395548	     -3.62146059	    -12.92052562	    -15.30404607	     21.04230274	     -6.73243197	    -11.13115958	      4.46116952	     -8.24705565
      0.09000000	     -5.60651363	      2.22707144	    188.17104586	      0.04379394	      0.95352162	      1.21787595	     -6.45507838	      5.04651504	    -11.15910912	     -7.45452976	     10.03056225	      1.88029717	     -2.77206653	     -3.64748937	    -12.86554757	    -15.43420987	     21.09946913	     -6.75753313	    -11.12045072	      4.47705947	     -8.29643625
      0.10000000	     -5.61325596	      2.24564183	    188.20520136	      0.04363546	      0.95346423	      1.21797620	     -6.43465046	      5.06121445	    -11.19554015	     -7.52959192	     10.08603263	      1.88684287	     -2.70878236	     -3.67844677	    -12.80401693	    -15.57589338	     21.16277377	     -6.78851413	    -11.12575419	      4.49998636	     -8.34944200
      0.11000000	     -5.62312785	      2.27014968	    188.24918508	      0.04346149	      0.95340286	      1.21809725	     -6.41913562	      5.08368541	    -11.23937244	     -7.60413292	     10.14363879	      1.89099469	     -2.63933034	     -3.71640887	    -12.72712189	    -15.73202955	     21.23831814	     -6.82928638	    -11.13567987	      4.53081601	     -8.40430526
      0.12000000	     -5.63283183	      2.29688665	    188.29356149	      0.04328355	      0.95333415	      1.21823238	     -6.39972949	      5.10762320	    -11.28303675	     -7.68481292	     10.20034346	      1.89240103	     -2.56141857	     -3.75515717	    -12.63752089	    -15.90535484	     21.32380551	     -6.88419575	    -11.15050498	      4.56459370	     -8.45690563
      0.13000000	     -5.64649463	      2.32464757	    188.33862505	      0.04309085	      0.95326406	      1.21837856	     -6.38338158	      5.13346860	    -11.32174312	     -7.77007742	     10.25996170	      1.89121953	     -2.48369069	     -3.79463338	    -12.54428735	    -16.08756189	     21.41348546	     -6.94826940	    -11.17328750	      4.59773183	     -8.50044918
      0.14000000	     -5.66355636	      2.35229122	    188.38343743	      0.04288439	      0.95318945	      1.21853990	     -6.36644292	      5.15820346	    -11.35782538	     -7.86574637	     10.32328663	      1.88712790	     -2.40488434	     -3.83339418	    -12.44651251	    -16.28195570	     21.51132158	     -7.02384587	    -11.20445059	      4.62973477	     -8.53418850
      0.15000000	     -5.68207879	      2.37812126	    188.42396187	      0.04265600	      0.95311096	      1.21871840	     -6.34832769	      5.17938980	    -11.38998129	     -7.96946684	     10.38949175	      1.87952445	     -2.32824105	     -3.86735948	    -12.34827071	    -16.48076367	     21.61245765	     -7.11208148	    -11.24088934	      4.65926538	     -8.55561472
      0.16000000	     -5.71080752	      2.40235686	    188.45818136	      0.04239741	      0.95304291	      1.21888086	     -6.33966847	      5.20095209	    -11.41131702	     -8.08033783	     10.45927043	      1.87056114	     -2.26631274	     -3.90102102	    -12.25036611	    -16.67860698	     21.70740905	     -7.19524715	    -11.29256500	      4.67947074	     -8.56235334
      0.17000000	     -5.74246447	      2.42398476	    188.49240161	      0.04210897	      0.95297355	      1.21906483	     -6.33277850	      5.21840512	    -11.43297839	     -8.19860374	     10.53404845	      1.85856300	     -2.20981154	     -3.93035830	    -12.15040423	    -16.87761644	     21.81046107	     -7.28543710	    -11.34849472	      4.69637613	     -8.56291305
      0.18000000	     -5.77637683	      2.44356269	    188.52799273	      0.04179265	      0.95290299	      1.21926251	     -6.32632320	      5.23322067	    -11.45405585	     -8.32477773	     10.61421786	      1.84373241	     -2.15902993	     -3.95651715	    -12.04606708	    -17.07468050	     21.91644464	     -7.38143618	    -11.40771567	      4.70869616	     -8.56104685
      0.19000000	     -5.80911998	      2.46068994	    188.56528627	      0.04145245	      0.95282527	      1.21946150	     -6.31509763	      5.24531471	    -11.47642103	     -8.46155410	     10.69888849	      1.82597695	     -2.10993829	     -3.97929717	    -11.93598639	    -17.26876684	     22.02804722	     -7.48245525	    -11.46658214	      4.71222422	     -8.56224236
      0.20000000	     -5.84934234	      2.45837337	    188.58326450	      0.04109013	      0.95277842	      1.21963810	     -6.31851119	      5.23800263	    -11.43061867	     -8.59225464	     10.71667878	      1.82066040	     -2.08989172	     -3.97748437	    -11.83267620	    -17.43486969	     22.06588514	     -7.50305831	    -11.54225995	      4.68686309	     -8.54423424
      0.21000000	     -5.82584862	      2.49153957	    188.64962090	      0.04073337	      0.95257424	      1.21990464	     -6.20862735	      5.25127003	    -11.53614147	     -8.80328209	     10.88533963	      1.76066137	     -1.95335287	     -4.00847479	    -11.67209236	    -17.67029752	     22.27192994	     -7.78792132	    -11.53088044	      4.70429504	     -8.59532196
      0.22000000	     -5.84958647	      2.50602345	    188.68966389	      0.04032140	      0.95245189	      1.22012819	     -6.16558344	      5.25441497	    -11.55902184	     -8.99394291	     11.00134855	      1.73842648	     -1.89556748	     -4.02703347	    -11.55734237	    -17.87309314	     22.41988110	     -7.88330080	    -11.58236517	      4.69807527	     -8.63208690
      0.23000000	     -5.84242529	      2.53336288	    188.72908168	      0.03989206	      0.95227621	      1.22035843	     -6.06993968	      5.26279936	    -11.59234693	     -9.22028599	     11.12491555	      1.70898845	     -1.80045717	     -4.05004280	    -11.40276502	    -18.08111258	     22.56929270	     -8.01557640	    -11.59891462	      4.69959155	     -8.65561737
      0.24000000	     -5.87563174	      2.55878315	    188.75899173	      0.03939438	      0.95215078	      1.22059649	     -6.02185753	      5.27458437	    -11.60553366	     -9.44849711	     11.26174570	      1.70344937	     -1.76561586	     -4.07653571	    -11.27043048	    -18.27160761	     22.74806084	     -8.05323201	    -11.66369574	      4.70525106	     -8.67556010
      0.25000000	     -5.83920045	      2.58281701	    188.80510601	      0.03889413	      0.95190808	      1.22085571	     -5.86918329	      5.26950607	    -11.65373241	     -9.73655392	     11.42472158	      1.68181835	     -1.62956542	     -4.09433777	    -11.11597321	    -18.50736307	     22.92024238	     -8.19525177	    -11.65121156	      4.69635612	     -8.76225201
      0.26000000	     -5.83028492	      2.60838403	    188.84172410	      0.03833736	      0.95169929	      1.22111848	     -5.74198272	      5.26985191	    -11.67583156	    -10.03761115	     11.59135989	      1.66885057	     -1.53860113	     -4.11308121	    -10.95594796	    -18.72498337	     23.10777395	     -8.30732086	    -11.67502017	      4.68906243	     -8.80983928
